<?xml version="1.0" encoding="UTF-8" standalone="no"?><svg xmlns="http://www.w3.org/2000/svg" xmlns:xlink="http://www.w3.org/1999/xlink" contentScriptType="application/ecmascript" contentStyleType="text/css" height="585px" preserveAspectRatio="none" style="width:704px;height:585px;" version="1.1" viewBox="0 0 704 585" width="704px" zoomAndPan="magnify">
    <defs>
        <filter height="300%" id="fjwlu2xi7a4jr" width="300%" x="-1" y="-1">
            <feGaussianBlur result="blurOut" stdDeviation="2.0" />
            <feColorMatrix in="blurOut" result="blurOut2" type="matrix" values="0 0 0 0 0 0 0 0 0 0 0 0 0 0 0 0 0 0 .4 0" />
            <feOffset dx="4.0" dy="4.0" in="blurOut2" result="blurOut3" />
            <feBlend in="SourceGraphic" in2="blurOut3" mode="normal" />
        </filter>
    </defs>
    <g>
        <rect fill="#E4F7E3" height="570.4531" style="stroke: #A80036; stroke-width: 1.0;" width="416" x="170" y="4" /><text fill="#000000" font-family="sans-serif" font-size="13" font-weight="bold" lengthAdjust="spacingAndGlyphs" textLength="285" x="235.5" y="16.0669">School Admission Sytem Microservices</text>
        <line style="stroke: #A80036; stroke-width: 1.0; stroke-dasharray: 5.0,5.0;" x1="135" x2="135" y1="58.4297" y2="536.1563" />
        <line style="stroke: #A80036; stroke-width: 1.0; stroke-dasharray: 5.0,5.0;" x1="277" x2="277" y1="58.4297" y2="536.1563" />
        <line style="stroke: #A80036; stroke-width: 1.0; stroke-dasharray: 5.0,5.0;" x1="486" x2="486" y1="58.4297" y2="536.1563" />
        <line style="stroke: #A80036; stroke-width: 1.0; stroke-dasharray: 5.0,5.0;" x1="669" x2="669" y1="58.4297" y2="536.1563" />
        <rect fill="#7EE3F5" filter="url(#fjwlu2xi7a4jr)" height="30.2969" style="stroke: #A80036; stroke-width: 1.5;" width="53" x="107" y="23.1328" /><text fill="#000000" font-family="sans-serif" font-size="14" lengthAdjust="spacingAndGlyphs" textLength="39" x="114" y="43.1279">Client</text>
        <rect fill="#7EE3F5" filter="url(#fjwlu2xi7a4jr)" height="30.2969" style="stroke: #A80036; stroke-width: 1.5;" width="53" x="107" y="535.1563" /><text fill="#000000" font-family="sans-serif" font-size="14" lengthAdjust="spacingAndGlyphs" textLength="39" x="114" y="555.1514">Client</text>
        <rect fill="#7EE3F5" filter="url(#fjwlu2xi7a4jr)" height="30.2969" style="stroke: #A80036; stroke-width: 1.5;" width="203" x="174" y="23.1328" /><text fill="#000000" font-family="sans-serif" font-size="14" lengthAdjust="spacingAndGlyphs" textLength="189" x="181" y="43.1279">Admission Manager Service</text>
        <rect fill="#7EE3F5" filter="url(#fjwlu2xi7a4jr)" height="30.2969" style="stroke: #A80036; stroke-width: 1.5;" width="203" x="174" y="535.1563" /><text fill="#000000" font-family="sans-serif" font-size="14" lengthAdjust="spacingAndGlyphs" textLength="189" x="181" y="555.1514">Admission Manager Service</text>
        <rect fill="#7EE3F5" filter="url(#fjwlu2xi7a4jr)" height="30.2969" style="stroke: #A80036; stroke-width: 1.5;" width="187" x="391" y="23.1328" /><text fill="#000000" font-family="sans-serif" font-size="14" lengthAdjust="spacingAndGlyphs" textLength="173" x="398" y="43.1279">Student Manager Service</text>
        <rect fill="#7EE3F5" filter="url(#fjwlu2xi7a4jr)" height="30.2969" style="stroke: #A80036; stroke-width: 1.5;" width="187" x="391" y="535.1563" /><text fill="#000000" font-family="sans-serif" font-size="14" lengthAdjust="spacingAndGlyphs" textLength="173" x="398" y="555.1514">Student Manager Service</text>
        <rect fill="#7EE3F5" filter="url(#fjwlu2xi7a4jr)" height="30.2969" style="stroke: #A80036; stroke-width: 1.5;" width="51" x="642" y="23.1328" /><text fill="#000000" font-family="sans-serif" font-size="14" lengthAdjust="spacingAndGlyphs" textLength="37" x="649" y="43.1279">Kafka</text>
        <rect fill="#7EE3F5" filter="url(#fjwlu2xi7a4jr)" height="30.2969" style="stroke: #A80036; stroke-width: 1.5;" width="51" x="642" y="535.1563" /><text fill="#000000" font-family="sans-serif" font-size="14" lengthAdjust="spacingAndGlyphs" textLength="37" x="649" y="555.1514">Kafka</text>
        <path d="M8,73.4297 L8,98.4297 L127,98.4297 L127,83.4297 L117,73.4297 L8,73.4297 " fill="#00FFFF" filter="url(#fjwlu2xi7a4jr)" style="stroke: #A80036; stroke-width: 1.0;" />
        <path d="M117,73.4297 L117,83.4297 L127,83.4297 L117,73.4297 " fill="#00FFFF" style="stroke: #A80036; stroke-width: 1.0;" /><text fill="#000000" font-family="sans-serif" font-size="13" lengthAdjust="spacingAndGlyphs" textLength="98" x="14" y="90.4966">POST:/students</text>
        <polygon fill="#A80036" points="265.5,124.6953,275.5,128.6953,265.5,132.6953,269.5,128.6953" style="stroke: #A80036; stroke-width: 1.0;" />
        <line style="stroke: #A80036; stroke-width: 1.0;" x1="135.5" x2="271.5" y1="128.6953" y2="128.6953" /><text fill="#000000" font-family="sans-serif" font-size="13" lengthAdjust="spacingAndGlyphs" textLength="77" x="142.5" y="123.6294">add student</text>
        <path d="M282,141.6953 L282,166.6953 L464,166.6953 L464,151.6953 L454,141.6953 L282,141.6953 " fill="#FFAAAA" filter="url(#fjwlu2xi7a4jr)" style="stroke: #A80036; stroke-width: 1.0;" />
        <path d="M454,141.6953 L454,151.6953 L464,151.6953 L454,141.6953 " fill="#FFAAAA" style="stroke: #A80036; stroke-width: 1.0;" /><text fill="#000000" font-family="sans-serif" font-size="13" lengthAdjust="spacingAndGlyphs" textLength="161" x="288" y="158.7622">returns student unique Id</text>
        <polygon fill="#A80036" points="146.5,192.9609,136.5,196.9609,146.5,200.9609,142.5,196.9609" style="stroke: #A80036; stroke-width: 1.0;" />
        <line style="stroke: #A80036; stroke-width: 1.0;" x1="140.5" x2="276.5" y1="196.9609" y2="196.9609" /><text fill="#000000" font-family="sans-serif" font-size="13" lengthAdjust="spacingAndGlyphs" textLength="60" x="152.5" y="191.895">studentId</text>
        <polygon fill="#A80036" points="657.5,222.0938,667.5,226.0938,657.5,230.0938,661.5,226.0938" style="stroke: #A80036; stroke-width: 1.0;" />
        <line style="stroke: #A80036; stroke-width: 1.0;" x1="277.5" x2="663.5" y1="226.0938" y2="226.0938" /><text fill="#000000" font-family="sans-serif" font-size="13" lengthAdjust="spacingAndGlyphs" textLength="159" x="284.5" y="221.0278">createStudentCommand</text>
        <polygon fill="#A80036" points="497.5,251.2266,487.5,255.2266,497.5,259.2266,493.5,255.2266" style="stroke: #A80036; stroke-width: 1.0;" />
        <line style="stroke: #A80036; stroke-width: 1.0;" x1="491.5" x2="668.5" y1="255.2266" y2="255.2266" /><text fill="#000000" font-family="sans-serif" font-size="13" lengthAdjust="spacingAndGlyphs" textLength="159" x="503.5" y="250.1606">createStudentCommand</text>
        <line style="stroke: #A80036; stroke-width: 1.0;" x1="486.5" x2="528.5" y1="284.3594" y2="284.3594" />
        <line style="stroke: #A80036; stroke-width: 1.0;" x1="528.5" x2="528.5" y1="284.3594" y2="297.3594" />
        <line style="stroke: #A80036; stroke-width: 1.0;" x1="487.5" x2="528.5" y1="297.3594" y2="297.3594" />
        <polygon fill="#A80036" points="497.5,293.3594,487.5,297.3594,497.5,301.3594,493.5,297.3594" style="stroke: #A80036; stroke-width: 1.0;" /><text fill="#000000" font-family="sans-serif" font-size="13" lengthAdjust="spacingAndGlyphs" textLength="126" x="493.5" y="279.2935">creates the student</text>
        <path d="M491,310.3594 L491,335.3594 L624,335.3594 L624,320.3594 L614,310.3594 L491,310.3594 " fill="#FF0000" filter="url(#fjwlu2xi7a4jr)" style="stroke: #A80036; stroke-width: 1.0;" />
        <path d="M614,310.3594 L614,320.3594 L624,320.3594 L614,310.3594 " fill="#FF0000" style="stroke: #A80036; stroke-width: 1.0;" /><text fill="#000000" font-family="sans-serif" font-size="13" lengthAdjust="spacingAndGlyphs" textLength="112" x="497" y="327.4263">Not implemented</text>
        <line style="stroke: #A80036; stroke-width: 1.0;" x1="486.5" x2="528.5" y1="365.625" y2="365.625" />
        <line style="stroke: #A80036; stroke-width: 1.0;" x1="528.5" x2="528.5" y1="365.625" y2="378.625" />
        <line style="stroke: #A80036; stroke-width: 1.0;" x1="487.5" x2="528.5" y1="378.625" y2="378.625" />
        <polygon fill="#A80036" points="497.5,374.625,487.5,378.625,497.5,382.625,493.5,378.625" style="stroke: #A80036; stroke-width: 1.0;" /><text fill="#000000" font-family="sans-serif" font-size="13" lengthAdjust="spacingAndGlyphs" textLength="161" x="493.5" y="360.5591">persists the student data</text>
        <path d="M16,391.625 L16,416.625 L126,416.625 L126,401.625 L116,391.625 L16,391.625 " fill="#00FFFF" filter="url(#fjwlu2xi7a4jr)" style="stroke: #A80036; stroke-width: 1.0;" />
        <path d="M116,391.625 L116,401.625 L126,401.625 L116,391.625 " fill="#00FFFF" style="stroke: #A80036; stroke-width: 1.0;" /><text fill="#000000" font-family="sans-serif" font-size="13" lengthAdjust="spacingAndGlyphs" textLength="89" x="22" y="408.6919">GET:/students</text>
        <polygon fill="#A80036" points="474.5,442.8906,484.5,446.8906,474.5,450.8906,478.5,446.8906" style="stroke: #A80036; stroke-width: 1.0;" />
        <line style="stroke: #A80036; stroke-width: 1.0;" x1="135.5" x2="480.5" y1="446.8906" y2="446.8906" /><text fill="#000000" font-family="sans-serif" font-size="13" lengthAdjust="spacingAndGlyphs" textLength="81" x="142.5" y="441.8247">get students</text>
        <line style="stroke: #A80036; stroke-width: 1.0;" x1="486.5" x2="528.5" y1="476.0234" y2="476.0234" />
        <line style="stroke: #A80036; stroke-width: 1.0;" x1="528.5" x2="528.5" y1="476.0234" y2="489.0234" />
        <line style="stroke: #A80036; stroke-width: 1.0;" x1="487.5" x2="528.5" y1="489.0234" y2="489.0234" />
        <polygon fill="#A80036" points="497.5,485.0234,487.5,489.0234,497.5,493.0234,493.5,489.0234" style="stroke: #A80036; stroke-width: 1.0;" /><text fill="#000000" font-family="sans-serif" font-size="13" lengthAdjust="spacingAndGlyphs" textLength="139" x="493.5" y="470.9575">get the students data</text>
        <polygon fill="#A80036" points="146.5,514.1563,136.5,518.1563,146.5,522.1563,142.5,518.1563" style="stroke: #A80036; stroke-width: 1.0;" />
        <line style="stroke: #A80036; stroke-width: 1.0;" x1="140.5" x2="485.5" y1="518.1563" y2="518.1563" /><text fill="#000000" font-family="sans-serif" font-size="13" lengthAdjust="spacingAndGlyphs" textLength="121" x="152.5" y="513.0903">return students list</text>
        <!--
@startuml

participant "Client" as client order 20 #7EE3F5
box "School Admission Sytem Microservices" #E4F7E3
participant "Admission Manager Service" as ams order 20 #7EE3F5
participant "Student Manager Service" as sms order 20 #7EE3F5
end box
participant "Kafka" as kafka order 20 #7EE3F5
    note left of client #aqua: POST:/students
    client -> ams :  add student
    note right of ams #FFAAAA: returns student unique Id
    ams -> client :  studentId
    ams -> kafka : createStudentCommand
    kafka ->  sms : createStudentCommand
    sms -> sms : creates the student
    note right of sms #red: Not implemented
    sms -> sms : persists the student data
    note left of client #aqua: GET:/students
    client -> sms :  get students
    sms -> sms : get the students data
    sms -> client :  return students list
@enduml

PlantUML version 1.2019.09(Mon Aug 26 21:49:51 IST 2019)
(GPL source distribution)
Java Runtime: OpenJDK Runtime Environment
JVM: OpenJDK 64-Bit Server VM
Java Version: 11.0.4+11-post-Ubuntu-1ubuntu218.04.3
Operating System: Linux
OS Version: 5.0.0-27-generic
Default Encoding: UTF-8
Language: en
Country: IN
-->
    </g>
</svg>